REM MD5 f445db0f720689bbdd02a7806c60cc74
FILE "Lunar - Silver Star Story Complete (USA) (The Making of).bin" BINARY
  TRACK 01 MODE2/2352
    INDEX 01 00:00:00
  TRACK 02 AUDIO
    INDEX 00 60:22:40
    INDEX 01 60:24:40
  TRACK 03 AUDIO
    INDEX 00 62:53:12
    INDEX 01 62:55:12
REM LEADOUT 63:38:56
